<mxfile host="app.diagrams.net" modified="2024-02-20T14:20:43.298Z" agent="Mozilla/5.0 (Windows NT 10.0; Win64; x64) AppleWebKit/537.36 (KHTML, like Gecko) Chrome/121.0.0.0 Safari/537.36" etag="UUfiCIVt9HEvfkJvAeXL" version="23.1.5" type="github">
  <diagram id="R2lEEEUBdFMjLlhIrx00" name="Page-1">
    <mxGraphModel dx="2877" dy="1214" grid="1" gridSize="10" guides="1" tooltips="1" connect="1" arrows="1" fold="1" page="1" pageScale="1" pageWidth="850" pageHeight="1100" math="0" shadow="0" extFonts="Permanent Marker^https://fonts.googleapis.com/css?family=Permanent+Marker">
      <root>
        <mxCell id="0" />
        <mxCell id="1" parent="0" />
        <mxCell id="C-vyLk0tnHw3VtMMgP7b-12" value="" style="edgeStyle=entityRelationEdgeStyle;endArrow=ERzeroToMany;startArrow=ERone;endFill=1;startFill=0;" parent="1" target="C-vyLk0tnHw3VtMMgP7b-17" edge="1">
          <mxGeometry width="100" height="100" relative="1" as="geometry">
            <mxPoint x="699.9999999999998" y="165" as="sourcePoint" />
            <mxPoint x="460" y="205" as="targetPoint" />
          </mxGeometry>
        </mxCell>
        <mxCell id="_B3dVXz8mPuf3ZClpegD-13" style="edgeStyle=orthogonalEdgeStyle;rounded=0;orthogonalLoop=1;jettySize=auto;html=1;exitX=0.25;exitY=0;exitDx=0;exitDy=0;entryX=0.5;entryY=1;entryDx=0;entryDy=0;" edge="1" parent="1" source="_B3dVXz8mPuf3ZClpegD-4" target="_B3dVXz8mPuf3ZClpegD-6">
          <mxGeometry relative="1" as="geometry" />
        </mxCell>
        <mxCell id="_B3dVXz8mPuf3ZClpegD-14" style="edgeStyle=orthogonalEdgeStyle;rounded=0;orthogonalLoop=1;jettySize=auto;html=1;exitX=0;exitY=0;exitDx=0;exitDy=0;entryX=1;entryY=0.5;entryDx=0;entryDy=0;" edge="1" parent="1" source="_B3dVXz8mPuf3ZClpegD-4" target="_B3dVXz8mPuf3ZClpegD-5">
          <mxGeometry relative="1" as="geometry" />
        </mxCell>
        <mxCell id="_B3dVXz8mPuf3ZClpegD-17" style="edgeStyle=orthogonalEdgeStyle;rounded=0;orthogonalLoop=1;jettySize=auto;html=1;exitX=0.75;exitY=1;exitDx=0;exitDy=0;entryX=0;entryY=0.5;entryDx=0;entryDy=0;" edge="1" parent="1" source="_B3dVXz8mPuf3ZClpegD-4" target="_B3dVXz8mPuf3ZClpegD-11">
          <mxGeometry relative="1" as="geometry" />
        </mxCell>
        <mxCell id="_B3dVXz8mPuf3ZClpegD-18" style="edgeStyle=orthogonalEdgeStyle;rounded=0;orthogonalLoop=1;jettySize=auto;html=1;exitX=0.5;exitY=0;exitDx=0;exitDy=0;entryX=0;entryY=0.5;entryDx=0;entryDy=0;" edge="1" parent="1" source="_B3dVXz8mPuf3ZClpegD-4" target="_B3dVXz8mPuf3ZClpegD-8">
          <mxGeometry relative="1" as="geometry" />
        </mxCell>
        <mxCell id="_B3dVXz8mPuf3ZClpegD-19" style="edgeStyle=orthogonalEdgeStyle;rounded=0;orthogonalLoop=1;jettySize=auto;html=1;exitX=1;exitY=0;exitDx=0;exitDy=0;entryX=0;entryY=0.5;entryDx=0;entryDy=0;" edge="1" parent="1" source="_B3dVXz8mPuf3ZClpegD-4" target="_B3dVXz8mPuf3ZClpegD-12">
          <mxGeometry relative="1" as="geometry" />
        </mxCell>
        <mxCell id="_B3dVXz8mPuf3ZClpegD-23" style="edgeStyle=orthogonalEdgeStyle;rounded=0;orthogonalLoop=1;jettySize=auto;html=1;exitX=1;exitY=0.5;exitDx=0;exitDy=0;" edge="1" parent="1" source="_B3dVXz8mPuf3ZClpegD-4">
          <mxGeometry relative="1" as="geometry">
            <mxPoint x="630" y="599.8888888888889" as="targetPoint" />
          </mxGeometry>
        </mxCell>
        <mxCell id="_B3dVXz8mPuf3ZClpegD-4" value="student" style="whiteSpace=wrap;html=1;align=center;" vertex="1" parent="1">
          <mxGeometry x="330" y="580" width="100" height="40" as="geometry" />
        </mxCell>
        <mxCell id="_B3dVXz8mPuf3ZClpegD-5" value="Name" style="ellipse;whiteSpace=wrap;html=1;align=center;" vertex="1" parent="1">
          <mxGeometry x="150" y="520" width="100" height="40" as="geometry" />
        </mxCell>
        <mxCell id="_B3dVXz8mPuf3ZClpegD-6" value="Address" style="ellipse;whiteSpace=wrap;html=1;align=center;" vertex="1" parent="1">
          <mxGeometry x="260" y="430" width="100" height="40" as="geometry" />
        </mxCell>
        <mxCell id="_B3dVXz8mPuf3ZClpegD-7" value="student_id" style="ellipse;whiteSpace=wrap;html=1;align=center;fontStyle=4;" vertex="1" parent="1">
          <mxGeometry x="150" y="590" width="100" height="40" as="geometry" />
        </mxCell>
        <mxCell id="_B3dVXz8mPuf3ZClpegD-8" value="DOB" style="ellipse;whiteSpace=wrap;html=1;align=center;" vertex="1" parent="1">
          <mxGeometry x="400" y="430" width="100" height="40" as="geometry" />
        </mxCell>
        <mxCell id="_B3dVXz8mPuf3ZClpegD-9" value="school_id" style="ellipse;whiteSpace=wrap;html=1;align=center;" vertex="1" parent="1">
          <mxGeometry x="300" y="680" width="100" height="40" as="geometry" />
        </mxCell>
        <mxCell id="_B3dVXz8mPuf3ZClpegD-11" value="class_id" style="ellipse;whiteSpace=wrap;html=1;align=center;" vertex="1" parent="1">
          <mxGeometry x="450" y="650" width="100" height="40" as="geometry" />
        </mxCell>
        <mxCell id="_B3dVXz8mPuf3ZClpegD-12" value="Sex" style="ellipse;whiteSpace=wrap;html=1;align=center;" vertex="1" parent="1">
          <mxGeometry x="480" y="500" width="100" height="40" as="geometry" />
        </mxCell>
        <mxCell id="_B3dVXz8mPuf3ZClpegD-15" style="edgeStyle=orthogonalEdgeStyle;rounded=0;orthogonalLoop=1;jettySize=auto;html=1;exitX=0;exitY=0.5;exitDx=0;exitDy=0;entryX=0.934;entryY=0.258;entryDx=0;entryDy=0;entryPerimeter=0;" edge="1" parent="1" source="_B3dVXz8mPuf3ZClpegD-4" target="_B3dVXz8mPuf3ZClpegD-7">
          <mxGeometry relative="1" as="geometry" />
        </mxCell>
        <mxCell id="_B3dVXz8mPuf3ZClpegD-16" style="edgeStyle=orthogonalEdgeStyle;rounded=0;orthogonalLoop=1;jettySize=auto;html=1;exitX=0.25;exitY=1;exitDx=0;exitDy=0;entryX=0.546;entryY=0.25;entryDx=0;entryDy=0;entryPerimeter=0;" edge="1" parent="1" source="_B3dVXz8mPuf3ZClpegD-4" target="_B3dVXz8mPuf3ZClpegD-9">
          <mxGeometry relative="1" as="geometry" />
        </mxCell>
        <mxCell id="_B3dVXz8mPuf3ZClpegD-26" style="edgeStyle=orthogonalEdgeStyle;rounded=0;orthogonalLoop=1;jettySize=auto;html=1;exitX=0;exitY=0;exitDx=0;exitDy=0;entryX=0.5;entryY=1;entryDx=0;entryDy=0;" edge="1" parent="1" source="_B3dVXz8mPuf3ZClpegD-20" target="_B3dVXz8mPuf3ZClpegD-25">
          <mxGeometry relative="1" as="geometry" />
        </mxCell>
        <mxCell id="_B3dVXz8mPuf3ZClpegD-29" style="edgeStyle=orthogonalEdgeStyle;rounded=0;orthogonalLoop=1;jettySize=auto;html=1;exitX=0.75;exitY=0;exitDx=0;exitDy=0;entryX=0.5;entryY=1;entryDx=0;entryDy=0;" edge="1" parent="1" source="_B3dVXz8mPuf3ZClpegD-20" target="_B3dVXz8mPuf3ZClpegD-27">
          <mxGeometry relative="1" as="geometry" />
        </mxCell>
        <mxCell id="_B3dVXz8mPuf3ZClpegD-30" style="edgeStyle=orthogonalEdgeStyle;rounded=0;orthogonalLoop=1;jettySize=auto;html=1;exitX=1;exitY=0;exitDx=0;exitDy=0;entryX=0;entryY=0.5;entryDx=0;entryDy=0;" edge="1" parent="1" source="_B3dVXz8mPuf3ZClpegD-20" target="_B3dVXz8mPuf3ZClpegD-28">
          <mxGeometry relative="1" as="geometry" />
        </mxCell>
        <mxCell id="_B3dVXz8mPuf3ZClpegD-53" style="edgeStyle=orthogonalEdgeStyle;rounded=0;orthogonalLoop=1;jettySize=auto;html=1;exitX=1;exitY=0.5;exitDx=0;exitDy=0;entryX=0;entryY=0.5;entryDx=0;entryDy=0;" edge="1" parent="1" source="_B3dVXz8mPuf3ZClpegD-20" target="_B3dVXz8mPuf3ZClpegD-46">
          <mxGeometry relative="1" as="geometry" />
        </mxCell>
        <mxCell id="_B3dVXz8mPuf3ZClpegD-20" value="course" style="whiteSpace=wrap;html=1;align=center;" vertex="1" parent="1">
          <mxGeometry x="920" y="570" width="100" height="40" as="geometry" />
        </mxCell>
        <mxCell id="_B3dVXz8mPuf3ZClpegD-24" style="edgeStyle=orthogonalEdgeStyle;rounded=0;orthogonalLoop=1;jettySize=auto;html=1;exitX=1;exitY=0.5;exitDx=0;exitDy=0;entryX=0;entryY=0.75;entryDx=0;entryDy=0;" edge="1" parent="1" source="_B3dVXz8mPuf3ZClpegD-21" target="_B3dVXz8mPuf3ZClpegD-20">
          <mxGeometry relative="1" as="geometry" />
        </mxCell>
        <mxCell id="_B3dVXz8mPuf3ZClpegD-21" value="opt" style="shape=rhombus;perimeter=rhombusPerimeter;whiteSpace=wrap;html=1;align=center;" vertex="1" parent="1">
          <mxGeometry x="630" y="570" width="120" height="60" as="geometry" />
        </mxCell>
        <mxCell id="_B3dVXz8mPuf3ZClpegD-22" style="edgeStyle=orthogonalEdgeStyle;rounded=0;orthogonalLoop=1;jettySize=auto;html=1;exitX=0.5;exitY=1;exitDx=0;exitDy=0;" edge="1" parent="1" source="_B3dVXz8mPuf3ZClpegD-20" target="_B3dVXz8mPuf3ZClpegD-20">
          <mxGeometry relative="1" as="geometry" />
        </mxCell>
        <mxCell id="_B3dVXz8mPuf3ZClpegD-25" value="staff_id" style="ellipse;whiteSpace=wrap;html=1;align=center;" vertex="1" parent="1">
          <mxGeometry x="820" y="430" width="100" height="40" as="geometry" />
        </mxCell>
        <mxCell id="_B3dVXz8mPuf3ZClpegD-27" value="course_id" style="ellipse;whiteSpace=wrap;html=1;align=center;" vertex="1" parent="1">
          <mxGeometry x="950" y="400" width="100" height="40" as="geometry" />
        </mxCell>
        <mxCell id="_B3dVXz8mPuf3ZClpegD-28" value="course_name" style="ellipse;whiteSpace=wrap;html=1;align=center;" vertex="1" parent="1">
          <mxGeometry x="1090" y="490" width="100" height="40" as="geometry" />
        </mxCell>
        <mxCell id="_B3dVXz8mPuf3ZClpegD-38" style="edgeStyle=orthogonalEdgeStyle;rounded=0;orthogonalLoop=1;jettySize=auto;html=1;entryX=0.5;entryY=1;entryDx=0;entryDy=0;" edge="1" parent="1" source="_B3dVXz8mPuf3ZClpegD-31" target="_B3dVXz8mPuf3ZClpegD-20">
          <mxGeometry relative="1" as="geometry" />
        </mxCell>
        <mxCell id="_B3dVXz8mPuf3ZClpegD-31" value="teaches" style="shape=rhombus;perimeter=rhombusPerimeter;whiteSpace=wrap;html=1;align=center;" vertex="1" parent="1">
          <mxGeometry x="910" y="740" width="120" height="60" as="geometry" />
        </mxCell>
        <mxCell id="_B3dVXz8mPuf3ZClpegD-37" style="edgeStyle=orthogonalEdgeStyle;rounded=0;orthogonalLoop=1;jettySize=auto;html=1;exitX=1;exitY=0.25;exitDx=0;exitDy=0;" edge="1" parent="1" source="_B3dVXz8mPuf3ZClpegD-32" target="_B3dVXz8mPuf3ZClpegD-31">
          <mxGeometry relative="1" as="geometry" />
        </mxCell>
        <mxCell id="_B3dVXz8mPuf3ZClpegD-43" style="edgeStyle=orthogonalEdgeStyle;rounded=0;orthogonalLoop=1;jettySize=auto;html=1;exitX=0;exitY=0.5;exitDx=0;exitDy=0;entryX=1;entryY=0.5;entryDx=0;entryDy=0;" edge="1" parent="1" source="_B3dVXz8mPuf3ZClpegD-32" target="_B3dVXz8mPuf3ZClpegD-39">
          <mxGeometry relative="1" as="geometry" />
        </mxCell>
        <mxCell id="_B3dVXz8mPuf3ZClpegD-44" style="edgeStyle=orthogonalEdgeStyle;rounded=0;orthogonalLoop=1;jettySize=auto;html=1;exitX=0;exitY=1;exitDx=0;exitDy=0;" edge="1" parent="1" source="_B3dVXz8mPuf3ZClpegD-32" target="_B3dVXz8mPuf3ZClpegD-40">
          <mxGeometry relative="1" as="geometry" />
        </mxCell>
        <mxCell id="_B3dVXz8mPuf3ZClpegD-45" style="edgeStyle=orthogonalEdgeStyle;rounded=0;orthogonalLoop=1;jettySize=auto;html=1;exitX=1;exitY=1;exitDx=0;exitDy=0;entryX=0.5;entryY=0;entryDx=0;entryDy=0;" edge="1" parent="1" source="_B3dVXz8mPuf3ZClpegD-32" target="_B3dVXz8mPuf3ZClpegD-41">
          <mxGeometry relative="1" as="geometry" />
        </mxCell>
        <mxCell id="_B3dVXz8mPuf3ZClpegD-50" style="edgeStyle=orthogonalEdgeStyle;rounded=0;orthogonalLoop=1;jettySize=auto;html=1;exitX=0.5;exitY=0;exitDx=0;exitDy=0;" edge="1" parent="1" source="_B3dVXz8mPuf3ZClpegD-32" target="_B3dVXz8mPuf3ZClpegD-49">
          <mxGeometry relative="1" as="geometry" />
        </mxCell>
        <mxCell id="_B3dVXz8mPuf3ZClpegD-32" value="teacher" style="whiteSpace=wrap;html=1;align=center;" vertex="1" parent="1">
          <mxGeometry x="660" y="760" width="100" height="40" as="geometry" />
        </mxCell>
        <mxCell id="_B3dVXz8mPuf3ZClpegD-39" value="staff_id" style="ellipse;whiteSpace=wrap;html=1;align=center;" vertex="1" parent="1">
          <mxGeometry x="520" y="740" width="100" height="40" as="geometry" />
        </mxCell>
        <mxCell id="_B3dVXz8mPuf3ZClpegD-40" value="course_id" style="ellipse;whiteSpace=wrap;html=1;align=center;" vertex="1" parent="1">
          <mxGeometry x="550" y="850" width="100" height="40" as="geometry" />
        </mxCell>
        <mxCell id="_B3dVXz8mPuf3ZClpegD-41" value="t_name" style="ellipse;whiteSpace=wrap;html=1;align=center;" vertex="1" parent="1">
          <mxGeometry x="710" y="860" width="100" height="40" as="geometry" />
        </mxCell>
        <mxCell id="_B3dVXz8mPuf3ZClpegD-46" value="student_id" style="ellipse;whiteSpace=wrap;html=1;align=center;" vertex="1" parent="1">
          <mxGeometry x="1090" y="580" width="100" height="40" as="geometry" />
        </mxCell>
        <mxCell id="_B3dVXz8mPuf3ZClpegD-48" style="edgeStyle=orthogonalEdgeStyle;rounded=0;orthogonalLoop=1;jettySize=auto;html=1;entryX=1;entryY=0.5;entryDx=0;entryDy=0;" edge="1" parent="1" source="_B3dVXz8mPuf3ZClpegD-47" target="_B3dVXz8mPuf3ZClpegD-31">
          <mxGeometry relative="1" as="geometry" />
        </mxCell>
        <mxCell id="_B3dVXz8mPuf3ZClpegD-52" style="edgeStyle=orthogonalEdgeStyle;rounded=0;orthogonalLoop=1;jettySize=auto;html=1;exitX=0.75;exitY=0;exitDx=0;exitDy=0;" edge="1" parent="1" source="_B3dVXz8mPuf3ZClpegD-47" target="_B3dVXz8mPuf3ZClpegD-51">
          <mxGeometry relative="1" as="geometry" />
        </mxCell>
        <mxCell id="_B3dVXz8mPuf3ZClpegD-47" value="class" style="whiteSpace=wrap;html=1;align=center;" vertex="1" parent="1">
          <mxGeometry x="1160" y="750" width="100" height="40" as="geometry" />
        </mxCell>
        <mxCell id="_B3dVXz8mPuf3ZClpegD-49" value="class_id" style="ellipse;whiteSpace=wrap;html=1;align=center;" vertex="1" parent="1">
          <mxGeometry x="650" y="680" width="100" height="40" as="geometry" />
        </mxCell>
        <mxCell id="_B3dVXz8mPuf3ZClpegD-51" value="class_id" style="ellipse;whiteSpace=wrap;html=1;align=center;fontStyle=4;" vertex="1" parent="1">
          <mxGeometry x="1225" y="680" width="100" height="40" as="geometry" />
        </mxCell>
      </root>
    </mxGraphModel>
  </diagram>
</mxfile>
